<svg xmlns="http://www.w3.org/2000/svg" viewBox="0 0 512 512" role="img" aria-labelledby="title">
  <title>NovaCore AI</title>
  <defs>
    <linearGradient id="nova-blue" x1="94" x2="421" y1="129" y2="386" gradientUnits="userSpaceOnUse">
      <stop stop-color="#00B7FF" />
      <stop offset="0.46" stop-color="#0077FF" />
      <stop offset="1" stop-color="#0047FF" />
    </linearGradient>
    <linearGradient id="nova-side" x1="126" x2="386" y1="372" y2="172" gradientUnits="userSpaceOnUse">
      <stop stop-color="#003FE5" />
      <stop offset="1" stop-color="#008BFF" />
    </linearGradient>
    <filter id="glow" x="-40%" y="-40%" width="180%" height="180%" color-interpolation-filters="sRGB">
      <feGaussianBlur in="SourceAlpha" stdDeviation="34" result="blur" />
      <feColorMatrix in="blur" type="matrix" values="0 0 0 0 0.02 0 0 0 0 0.46 0 0 0 0 1 0 0 0 0.75 0" result="blueBlur" />
      <feMerge>
        <feMergeNode in="blueBlur" />
        <feMergeNode in="SourceGraphic" />
      </feMerge>
    </filter>
  </defs>
  <g filter="url(#glow)">
    <path fill="url(#nova-side)" d="M141 109h83c12 0 24 6 31 16l129 168c12 16 7 39-12 46l-73 27c-13 5-28 1-37-10L123 179c-16-21-1-70 18-70Z" opacity="0.92" />
    <path fill="url(#nova-side)" d="M132 109h70c18 0 33 15 33 33v234c0 22-22 38-43 31l-59-20c-13-4-22-17-22-31V130c0-12 9-21 21-21Z" />
    <path fill="url(#nova-blue)" d="M141 109h83c12 0 24 6 31 16l148 193c16 21 6 51-19 58l-50 15c-13 4-27 0-35-11L143 181c-16-21-1-72-2-72Z" />
    <path fill="url(#nova-side)" d="M326 238l75-31c15-6 31 5 31 21v139c0 15-10 28-25 32l-73 20c-21 6-41-10-41-32v-97c0-23 12-43 33-52Z" />
  </g>
</svg>
