<svg xmlns="http://www.w3.org/2000/svg" width="1600" height="900" viewBox="0 0 1600 900" role="img" aria-labelledby="title desc">
  <title id="title">Demo visual NovaCore AI</title>
  <desc id="desc">Interface de atendimento, automacao e painel de resultados da NovaCore AI.</desc>
  <defs>
    <linearGradient id="bg" x1="0" x2="1" y1="0" y2="1">
      <stop offset="0" stop-color="#0f172a"/>
      <stop offset="0.48" stop-color="#1e3a8a"/>
      <stop offset="1" stop-color="#0f766e"/>
    </linearGradient>
    <linearGradient id="panel" x1="0" x2="1" y1="0" y2="1">
      <stop offset="0" stop-color="#ffffff" stop-opacity="0.22"/>
      <stop offset="1" stop-color="#ffffff" stop-opacity="0.08"/>
    </linearGradient>
    <filter id="shadow" x="-10%" y="-10%" width="120%" height="120%">
      <feDropShadow dx="0" dy="28" stdDeviation="28" flood-color="#020617" flood-opacity="0.34"/>
    </filter>
  </defs>
  <rect width="1600" height="900" fill="url(#bg)"/>
  <path d="M0 698 C240 590 408 740 642 620 C888 494 1084 536 1600 366 L1600 900 L0 900 Z" fill="#14b8a6" opacity="0.14"/>
  <path d="M0 238 C296 126 508 292 812 170 C1050 75 1276 116 1600 24" fill="none" stroke="#93c5fd" stroke-width="2" opacity="0.3"/>
  <g filter="url(#shadow)">
    <rect x="150" y="118" width="1300" height="664" rx="34" fill="#f8fafc" opacity="0.97"/>
    <rect x="150" y="118" width="1300" height="86" rx="34" fill="#0f172a"/>
    <circle cx="205" cy="161" r="12" fill="#ef4444"/>
    <circle cx="245" cy="161" r="12" fill="#f59e0b"/>
    <circle cx="285" cy="161" r="12" fill="#10b981"/>
    <text x="350" y="170" fill="#e2e8f0" font-family="Inter, Arial, sans-serif" font-size="26" font-weight="700">NovaCore AI - Operacao inteligente</text>
    <rect x="206" y="248" width="372" height="482" rx="26" fill="#ffffff" stroke="#dbeafe"/>
    <text x="246" y="304" fill="#1d4ed8" font-family="Inter, Arial, sans-serif" font-size="30" font-weight="800">Atendimento 24h</text>
    <rect x="246" y="344" width="254" height="58" rx="18" fill="#eff6ff"/>
    <text x="272" y="381" fill="#1e293b" font-family="Inter, Arial, sans-serif" font-size="19" font-weight="700">Lead recebido no WhatsApp</text>
    <rect x="296" y="428" width="218" height="58" rx="18" fill="#dcfce7"/>
    <text x="324" y="464" fill="#14532d" font-family="Inter, Arial, sans-serif" font-size="19" font-weight="700">IA qualifica pedido</text>
    <rect x="246" y="512" width="282" height="58" rx="18" fill="#fef3c7"/>
    <text x="272" y="548" fill="#78350f" font-family="Inter, Arial, sans-serif" font-size="19" font-weight="700">Dados enviados ao CRM</text>
    <rect x="246" y="624" width="180" height="48" rx="24" fill="#2563eb"/>
    <text x="278" y="655" fill="#ffffff" font-family="Inter, Arial, sans-serif" font-size="18" font-weight="800">Fluxo ativo</text>
    <rect x="626" y="248" width="388" height="482" rx="26" fill="#ffffff" stroke="#dbeafe"/>
    <text x="666" y="304" fill="#0f766e" font-family="Inter, Arial, sans-serif" font-size="30" font-weight="800">Automacoes</text>
    <path d="M714 398 H874" stroke="#2563eb" stroke-width="12" stroke-linecap="round"/>
    <path d="M714 490 H924" stroke="#14b8a6" stroke-width="12" stroke-linecap="round"/>
    <path d="M714 582 H842" stroke="#f59e0b" stroke-width="12" stroke-linecap="round"/>
    <circle cx="682" cy="398" r="18" fill="#dbeafe"/>
    <circle cx="682" cy="490" r="18" fill="#ccfbf1"/>
    <circle cx="682" cy="582" r="18" fill="#fef3c7"/>
    <text x="714" y="370" fill="#334155" font-family="Inter, Arial, sans-serif" font-size="19" font-weight="700">Follow-up automatico</text>
    <text x="714" y="462" fill="#334155" font-family="Inter, Arial, sans-serif" font-size="19" font-weight="700">Agendamento inteligente</text>
    <text x="714" y="554" fill="#334155" font-family="Inter, Arial, sans-serif" font-size="19" font-weight="700">Relatorios e alertas</text>
    <rect x="1062" y="248" width="388" height="482" rx="26" fill="#ffffff" stroke="#dbeafe"/>
    <text x="1256" y="306" fill="#4f46e5" text-anchor="middle" font-family="Inter, Arial, sans-serif" font-size="30" font-weight="800">Resultados</text>
    <rect x="1100" y="356" width="88" height="310" rx="18" fill="#bfdbfe"/>
    <rect x="1212" y="440" width="88" height="226" rx="18" fill="#99f6e4"/>
    <rect x="1324" y="330" width="88" height="336" rx="18" fill="#ddd6fe"/>
    <text x="1144" y="706" fill="#334155" text-anchor="middle" font-family="Inter, Arial, sans-serif" font-size="18" font-weight="800">Leads</text>
    <text x="1256" y="706" fill="#334155" text-anchor="middle" font-family="Inter, Arial, sans-serif" font-size="18" font-weight="800">Tempo</text>
    <text x="1368" y="706" fill="#334155" text-anchor="middle" font-family="Inter, Arial, sans-serif" font-size="18" font-weight="800">Vendas</text>
  </g>
  <circle cx="800" cy="450" r="86" fill="#ffffff" opacity="0.94"/>
  <path d="M774 398 L774 502 L864 450 Z" fill="#2563eb"/>
  <rect x="342" y="790" width="916" height="72" rx="36" fill="#0f172a" opacity="0.88"/>
  <rect x="342" y="790" width="916" height="72" rx="36" fill="none" stroke="#ffffff" stroke-opacity="0.22"/>
  <text x="800" y="837" fill="#ffffff" text-anchor="middle" font-family="Inter, Arial, sans-serif" font-size="30" font-weight="800">Veja como a NovaCore AI trabalha dentro do seu negocio</text>
</svg>
