<svg xmlns="http://www.w3.org/2000/svg" width="1920" height="1080" viewBox="0 0 1920 1080" role="img" aria-labelledby="title desc">
  <title id="title">NovaCore AI em operacao</title>
  <desc id="desc">Cena visual com painel de atendimento, automacoes e indicadores de resultados.</desc>
  <defs>
    <linearGradient id="sky" x1="0" x2="1" y1="0" y2="1">
      <stop offset="0" stop-color="#06111f"/>
      <stop offset="0.42" stop-color="#102a4c"/>
      <stop offset="1" stop-color="#0b4f4c"/>
    </linearGradient>
    <linearGradient id="panel" x1="0" x2="1" y1="0" y2="1">
      <stop offset="0" stop-color="#ffffff"/>
      <stop offset="1" stop-color="#edf7ff"/>
    </linearGradient>
    <linearGradient id="blue" x1="0" x2="1" y1="0" y2="0">
      <stop offset="0" stop-color="#2563eb"/>
      <stop offset="1" stop-color="#14b8a6"/>
    </linearGradient>
    <filter id="softShadow" x="-12%" y="-12%" width="124%" height="124%">
      <feDropShadow dx="0" dy="32" stdDeviation="34" flood-color="#020617" flood-opacity="0.42"/>
    </filter>
  </defs>

  <rect width="1920" height="1080" fill="url(#sky)"/>
  <path d="M0 810 C280 700 510 750 760 640 C1050 512 1300 540 1920 314 L1920 1080 L0 1080 Z" fill="#14b8a6" opacity="0.22"/>
  <path d="M0 230 C350 115 620 285 935 162 C1215 52 1510 93 1920 28" fill="none" stroke="#93c5fd" stroke-width="2" opacity="0.22"/>
  <path d="M1058 0 L1920 0 L1920 1080 L1392 1080 C1260 814 1120 566 1058 0 Z" fill="#2563eb" opacity="0.13"/>

  <g filter="url(#softShadow)">
    <rect x="875" y="164" width="786" height="592" rx="34" fill="url(#panel)" opacity="0.98"/>
    <rect x="875" y="164" width="786" height="74" rx="34" fill="#0f172a"/>
    <circle cx="925" cy="201" r="10" fill="#ef4444"/>
    <circle cx="958" cy="201" r="10" fill="#f59e0b"/>
    <circle cx="991" cy="201" r="10" fill="#10b981"/>
    <rect x="1030" y="190" width="318" height="20" rx="10" fill="#e2e8f0" opacity="0.24"/>

    <rect x="925" y="286" width="266" height="298" rx="24" fill="#ffffff" stroke="#dbeafe"/>
    <rect x="958" y="326" width="128" height="14" rx="7" fill="#1d4ed8"/>
    <rect x="958" y="378" width="158" height="46" rx="16" fill="#eff6ff"/>
    <rect x="996" y="454" width="128" height="46" rx="16" fill="#dcfce7"/>
    <rect x="958" y="532" width="176" height="46" rx="16" fill="#fef3c7"/>
    <path d="M985 612 H1114" stroke="#2563eb" stroke-width="16" stroke-linecap="round"/>

    <rect x="1236" y="286" width="314" height="298" rx="24" fill="#ffffff" stroke="#dbeafe"/>
    <rect x="1278" y="335" width="190" height="18" rx="9" fill="#0f766e"/>
    <circle cx="1290" cy="424" r="18" fill="#dbeafe"/>
    <path d="M1330 424 H1468" stroke="#2563eb" stroke-width="12" stroke-linecap="round"/>
    <circle cx="1290" cy="494" r="18" fill="#ccfbf1"/>
    <path d="M1330 494 H1504" stroke="#14b8a6" stroke-width="12" stroke-linecap="round"/>
    <circle cx="1290" cy="564" r="18" fill="#fef3c7"/>
    <path d="M1330 564 H1438" stroke="#f59e0b" stroke-width="12" stroke-linecap="round"/>

    <rect x="1034" y="640" width="500" height="168" rx="24" fill="#ffffff" stroke="#dbeafe"/>
    <rect x="1086" y="710" width="66" height="72" rx="16" fill="#bfdbfe"/>
    <rect x="1216" y="682" width="66" height="100" rx="16" fill="#99f6e4"/>
    <rect x="1346" y="660" width="66" height="122" rx="16" fill="#ddd6fe"/>
    <path d="M1468 690 H1506" stroke="#2563eb" stroke-width="12" stroke-linecap="round"/>
    <path d="M1468 732 H1506" stroke="#14b8a6" stroke-width="12" stroke-linecap="round"/>
    <path d="M1468 774 H1506" stroke="#f59e0b" stroke-width="12" stroke-linecap="round"/>
  </g>

  <g opacity="0.9">
    <rect x="712" y="410" width="120" height="120" rx="36" fill="#ffffff" opacity="0.12"/>
    <path d="M754 458 L754 490 L786 474 Z" fill="#ffffff"/>
  </g>
</svg>
